<svg width="48" height="49" viewBox="0 0 48 49" fill="none" xmlns="http://www.w3.org/2000/svg">
<path d="M37 19.1093L28.0063 28.0694C26.6559 27.6796 25.3606 27.1208 24.1514 26.4062L8.28259 42.2172C7.67391 42.7464 6.88626 43.0255 6.0789 42.9982C5.27153 42.9708 4.50471 42.6391 3.93349 42.07C3.36227 41.5009 3.02927 40.737 3.00184 39.9326C2.97441 39.1283 3.25459 38.3435 3.78572 37.7371L19.5695 22.0123C18.1581 19.8214 17.8546 17.9601 17.8546 17.9601L26.8483 9C26.8483 9 35.0726 10.9187 37 19.1093Z" fill="#387BB6"/>
<path d="M38.5021 21.0606L29.8411 29.7127C28.9699 30.583 28.9697 31.9937 29.8405 32.8637C30.7114 33.7336 32.1236 33.7334 32.9948 32.8631L41.6558 24.211C42.527 23.3407 42.5272 21.93 41.6564 21.06C40.7855 20.1901 39.3733 20.1903 38.5021 21.0606Z" fill="#387BB6"/>
<path d="M22.0666 4.64013L13.4055 13.2923C12.5343 14.1625 12.5341 15.5733 13.405 16.4432C14.2758 17.3132 15.688 17.313 16.5592 16.4427L25.2203 7.79056C26.0914 6.92029 26.0917 5.50956 25.2208 4.63959C24.35 3.76962 22.9377 3.76986 22.0666 4.64013Z" fill="#387BB6"/>
<path d="M26.1651 42H40.8349C41.9396 42 42.999 42.4214 43.7801 43.1716C44.5612 43.9217 45 44.9391 45 46H22C22 44.9391 22.4388 43.9217 23.2199 43.1716C24.001 42.4214 25.0604 42 26.1651 42Z" fill="#387BB6"/>
</svg>
