<svg width="48" height="48" viewBox="0 0 48 48" fill="none" xmlns="http://www.w3.org/2000/svg">
<path d="M40 4C41.5913 4 43.1174 4.63214 44.2426 5.75736C45.3679 6.88258 46 8.4087 46 10V14H42V38C42 39.5913 41.3679 41.1174 40.2426 42.2426C39.1174 43.3679 37.5913 44 36 44H8C6.4087 44 4.88258 43.3679 3.75736 42.2426C2.63214 41.1174 2 39.5913 2 38V34H34V38C34.0001 38.4899 34.1799 38.9627 34.5054 39.3287C34.831 39.6948 35.2795 39.9287 35.766 39.986L36 40C36.4899 39.9999 36.9627 39.8201 37.3287 39.4946C37.6948 39.169 37.9287 38.7205 37.986 38.234L38 38V30H6V10C6 8.4087 6.63214 6.88258 7.75736 5.75736C8.88258 4.63214 10.4087 4 12 4H40Z" fill="#387BB6"/>
</svg>
