<svg width="48" height="48" viewBox="0 0 48 48" fill="none" xmlns="http://www.w3.org/2000/svg">
<path d="M4 44C4 39.7565 5.68571 35.6869 8.68629 32.6863C11.6869 29.6857 15.7565 28 20 28C24.2435 28 28.3131 29.6857 31.3137 32.6863C34.3143 35.6869 36 39.7565 36 44H4ZM20 26C13.37 26 8 20.63 8 14C8 7.37 13.37 2 20 2C26.63 2 32 7.37 32 14C32 20.63 26.63 26 20 26ZM34.726 30.466C37.7853 31.2523 40.5186 32.9837 42.5367 35.4137C44.5548 37.8436 45.7548 40.8483 45.966 44H40C40 38.78 38 34.028 34.726 30.466ZM30.68 25.914C32.356 24.4149 33.6963 22.5787 34.6131 20.5255C35.5299 18.4723 36.0026 16.2486 36 14C36.0043 11.2669 35.3052 8.57874 33.97 6.194C36.2353 6.64918 38.273 7.87475 39.7369 9.66239C41.2008 11.45 42.0005 13.6895 42 16C42.0005 17.4249 41.6965 18.8335 41.1082 20.1313C40.52 21.4292 39.6611 22.5863 38.5891 23.5251C37.5172 24.4639 36.2569 25.1627 34.8929 25.5747C33.5288 25.9867 32.0924 26.1024 30.68 25.914Z" fill="#387BB6"/>
</svg>
