<svg width="48" height="48" viewBox="0 0 48 48" fill="none" xmlns="http://www.w3.org/2000/svg">
<path d="M4.09961 26H15.0536C15.3958 32.3337 17.4147 38.4628 20.9036 43.76C16.5335 43.0735 12.514 40.9583 9.47364 37.745C6.43328 34.5316 4.54344 30.4014 4.09961 26ZM4.09961 22C4.54344 17.5986 6.43328 13.4683 9.47364 10.255C12.514 7.04169 16.5335 4.92644 20.9036 4.23999C17.4147 9.53721 15.3958 15.6663 15.0536 22H4.09961ZM43.8996 22H32.9456C32.6034 15.6663 30.5845 9.53721 27.0956 4.23999C31.4657 4.92644 35.4852 7.04169 38.5256 10.255C41.5659 13.4683 43.4558 17.5986 43.8996 22ZM43.8996 26C43.4558 30.4014 41.5659 34.5316 38.5256 37.745C35.4852 40.9583 31.4657 43.0735 27.0956 43.76C30.5845 38.4628 32.6034 32.3337 32.9456 26H43.9016H43.8996ZM19.0596 26H28.9396C28.6104 31.399 26.9102 36.6249 23.9996 41.184C21.089 36.6249 19.3888 31.399 19.0596 26ZM19.0596 22C19.3888 16.601 21.089 11.3751 23.9996 6.81599C26.9102 11.3751 28.6104 16.601 28.9396 22H19.0596Z" fill="#387BB6"/>
</svg>
