<svg width="48" height="48" viewBox="0 0 48 48" fill="none" xmlns="http://www.w3.org/2000/svg">
<path d="M4 6H42.276C42.4513 5.99971 42.6236 6.04549 42.7756 6.13277C42.9276 6.22005 43.054 6.34575 43.1421 6.49728C43.2302 6.64881 43.277 6.82084 43.2777 6.99612C43.2784 7.17141 43.2329 7.34379 43.146 7.496L36 20L43.146 32.504C43.2329 32.6562 43.2784 32.8286 43.2777 33.0039C43.277 33.1792 43.2302 33.3512 43.1421 33.5027C43.054 33.6543 42.9276 33.78 42.7756 33.8672C42.6236 33.9545 42.4513 34.0003 42.276 34H8V44H4V6Z" fill="#387BB6"/>
</svg>
