<svg width="12" height="12" viewBox="0 0 12 12" fill="none" xmlns="http://www.w3.org/2000/svg">
<path d="M2 1.5H10C10.1326 1.5 10.2598 1.55268 10.3536 1.64645C10.4473 1.74021 10.5 1.86739 10.5 2V10C10.5 10.1326 10.4473 10.2598 10.3536 10.3536C10.2598 10.4473 10.1326 10.5 10 10.5H2C1.86739 10.5 1.74021 10.4473 1.64645 10.3536C1.55268 10.2598 1.5 10.1326 1.5 10V2C1.5 1.86739 1.55268 1.74021 1.64645 1.64645C1.74021 1.55268 1.86739 1.5 2 1.5ZM5.5 5.5H3.5V6.5H5.5V8.5H6.5V6.5H8.5V5.5H6.5V3.5H5.5V5.5Z" fill="white"/>
</svg>
