<svg width="16" height="16" viewBox="0 0 16 16" fill="none" xmlns="http://www.w3.org/2000/svg">
<path d="M16 2.13333V10.9333C16 11.8005 15.2672 12.5333 14.4 12.5333H12.2667V15.2C12.2667 15.3101 12.1989 15.4091 12.0963 15.4488C12.0648 15.4611 12.0323 15.4667 12 15.4667C11.9264 15.4667 11.8544 15.4363 11.8027 15.3795L9.21547 12.5333H1.6C0.7328 12.5333 0 11.8005 0 10.9333V2.13333C0 1.26613 0.7328 0.533325 1.6 0.533325H14.4C15.2672 0.533325 16 1.26613 16 2.13333ZM5.33333 6.39999C5.33333 5.81172 4.85493 5.33332 4.26667 5.33332C3.6784 5.33332 3.2 5.81172 3.2 6.39999C3.2 6.98826 3.6784 7.46666 4.26667 7.46666C4.85493 7.46666 5.33333 6.98826 5.33333 6.39999ZM9.06667 6.39999C9.06667 5.81172 8.58827 5.33332 8 5.33332C7.41173 5.33332 6.93333 5.81172 6.93333 6.39999C6.93333 6.98826 7.41173 7.46666 8 7.46666C8.58827 7.46666 9.06667 6.98826 9.06667 6.39999ZM12.8 6.39999C12.8 5.81172 12.3216 5.33332 11.7333 5.33332C11.1451 5.33332 10.6667 5.81172 10.6667 6.39999C10.6667 6.98826 11.1451 7.46666 11.7333 7.46666C12.3216 7.46666 12.8 6.98826 12.8 6.39999Z" fill="#387BB6"/>
</svg>
