<svg width="17" height="17" viewBox="0 0 17 17" fill="none" xmlns="http://www.w3.org/2000/svg">
<path d="M1.23958 10.625H6.55208C7.23562 10.625 7.79167 10.069 7.79167 9.38542V6.55208C7.79167 5.86854 7.23562 5.3125 6.55208 5.3125H1.23958C0.556042 5.3125 0 5.86854 0 6.55208V9.38542C0 10.069 0.556042 10.625 1.23958 10.625Z" fill="#387BB6"/>
<path d="M1.23958 17H6.55208C7.23562 17 7.79167 16.444 7.79167 15.7604V12.9271C7.79167 12.2435 7.23562 11.6875 6.55208 11.6875H1.23958C0.556042 11.6875 0 12.2435 0 12.9271V15.7604C0 16.444 0.556042 17 1.23958 17Z" fill="#387BB6"/>
<path d="M15.7604 0H1.23958C0.556042 0 0 0.556042 0 1.23958V3.01042C0 3.69396 0.556042 4.25 1.23958 4.25H15.7604C16.444 4.25 17 3.69396 17 3.01042V1.23958C17 0.556042 16.444 0 15.7604 0Z" fill="#387BB6"/>
<path d="M16.4674 5.3125H9.73828C9.44503 5.3125 9.20703 5.5505 9.20703 5.84375C9.20703 6.137 9.44503 6.375 9.73828 6.375H16.4674C16.7607 6.375 16.9987 6.137 16.9987 5.84375C16.9987 5.5505 16.7607 5.3125 16.4674 5.3125Z" fill="#387BB6"/>
<path d="M16.4674 7.4375H9.73828C9.44503 7.4375 9.20703 7.6755 9.20703 7.96875C9.20703 8.262 9.44503 8.5 9.73828 8.5H16.4674C16.7607 8.5 16.9987 8.262 16.9987 7.96875C16.9987 7.6755 16.7607 7.4375 16.4674 7.4375Z" fill="#387BB6"/>
<path d="M16.4674 9.5625H9.73828C9.44503 9.5625 9.20703 9.8005 9.20703 10.0938C9.20703 10.387 9.44503 10.625 9.73828 10.625H16.4674C16.7607 10.625 16.9987 10.387 16.9987 10.0938C16.9987 9.8005 16.7607 9.5625 16.4674 9.5625Z" fill="#387BB6"/>
<path d="M16.4674 11.6875H9.73828C9.44503 11.6875 9.20703 11.9255 9.20703 12.2188C9.20703 12.512 9.44503 12.75 9.73828 12.75H16.4674C16.7607 12.75 16.9987 12.512 16.9987 12.2188C16.9987 11.9255 16.7607 11.6875 16.4674 11.6875Z" fill="#387BB6"/>
<path d="M16.4674 13.8125H9.73828C9.44503 13.8125 9.20703 14.0505 9.20703 14.3438C9.20703 14.637 9.44503 14.875 9.73828 14.875H16.4674C16.7607 14.875 16.9987 14.637 16.9987 14.3438C16.9987 14.0505 16.7607 13.8125 16.4674 13.8125Z" fill="#387BB6"/>
<path d="M16.4674 15.9375H9.73828C9.44503 15.9375 9.20703 16.1755 9.20703 16.4688C9.20703 16.762 9.44503 17 9.73828 17H16.4674C16.7607 17 16.9987 16.762 16.9987 16.4688C16.9987 16.1755 16.7607 15.9375 16.4674 15.9375Z" fill="#387BB6"/>
</svg>
