<svg width="24" height="24" viewBox="0 0 24 24" fill="none" xmlns="http://www.w3.org/2000/svg">
<path d="M18.9816 9.0748L13.9606 14.1142C13.2067 13.895 12.4835 13.5807 11.8084 13.1788L2.94918 22.0713C2.60936 22.3689 2.16963 22.5259 1.71889 22.5105C1.26816 22.4951 0.840053 22.3086 0.52115 21.9885C0.202248 21.6684 0.016341 21.2388 0.00102701 20.7864C-0.014287 20.334 0.142133 19.8926 0.438655 19.5516L9.25047 10.7075C8.46249 9.47533 8.29303 8.4285 8.29303 8.4285L13.3141 3.3891C13.3141 3.3891 17.9055 4.46824 18.9816 9.0748Z" fill="white"/>
<path d="M19.7805 10.0746L14.9546 14.9182C14.4692 15.4054 14.4691 16.1951 14.9543 16.6821C15.4395 17.1691 16.2264 17.169 16.7118 16.6818L21.5378 11.8382C22.0232 11.351 22.0233 10.5613 21.5381 10.0743C21.0528 9.58725 20.266 9.58738 19.7805 10.0746Z" fill="white"/>
<path d="M10.6226 0.882125L5.79664 5.72572C5.31123 6.21291 5.3111 7.00266 5.79634 7.48968C6.28159 7.9767 7.06846 7.97657 7.55387 7.48938L12.3798 2.64578C12.8652 2.1586 12.8654 1.36884 12.3801 0.881824C11.8949 0.394803 11.108 0.394938 10.6226 0.882125Z" fill="white"/>
<path d="M12.8328 21.6546H21.0634C21.6831 21.6546 22.2775 21.9017 22.7158 22.3415C23.154 22.7814 23.4002 23.3779 23.4002 24H10.496C10.496 23.3779 10.7422 22.7814 11.1804 22.3415C11.6187 21.9017 12.213 21.6546 12.8328 21.6546Z" fill="white"/>
</svg>
