<svg width="18" height="18" viewBox="0 0 18 18" fill="none" xmlns="http://www.w3.org/2000/svg">
<path d="M14.2362 6.80614L10.4704 10.5857C9.90499 10.4213 9.36263 10.1855 8.85633 9.88413L2.21188 16.5535C1.95702 16.7767 1.62722 16.8945 1.28917 16.8829C0.951118 16.8714 0.63004 16.7315 0.390863 16.4914C0.151686 16.2514 0.0122558 15.9291 0.000770261 15.5898C-0.0107152 15.2505 0.1066 14.9195 0.328992 14.6637L6.93785 8.0307C6.34687 7.10654 6.21977 6.32142 6.21977 6.32142L9.98555 2.54187C9.98555 2.54187 13.4292 3.35123 14.2362 6.80614Z" fill="#387BB6"/>
<path d="M14.8353 7.55605L11.2158 11.1887C10.8518 11.5541 10.8517 12.1464 11.2156 12.5117C11.5795 12.877 12.1697 12.8769 12.5338 12.5115L16.1532 8.8788C16.5173 8.51341 16.5174 7.92109 16.1534 7.55583C15.7895 7.19056 15.1993 7.19066 14.8353 7.55605Z" fill="#387BB6"/>
<path d="M7.96614 0.661639L4.34669 4.29434C3.98263 4.65973 3.98253 5.25204 4.34646 5.61731C4.7104 5.98257 5.30055 5.98247 5.66461 5.61708L9.28407 1.98438C9.64813 1.61899 9.64823 1.02668 9.2843 0.661413C8.92036 0.296147 8.3302 0.296249 7.96614 0.661639Z" fill="#387BB6"/>
<path d="M9.62371 16.241H15.7966C16.2615 16.241 16.7073 16.4263 17.0359 16.7562C17.3646 17.0861 17.5493 17.5335 17.5493 18H7.87109C7.87109 17.5335 8.05574 17.0861 8.38442 16.7562C8.7131 16.4263 9.15889 16.241 9.62371 16.241Z" fill="#387BB6"/>
</svg>
