<svg width="18" height="18" viewBox="0 0 18 18" fill="none" xmlns="http://www.w3.org/2000/svg">
<path d="M1.5 2.25H15.8535C15.9192 2.24989 15.9838 2.26706 16.0408 2.29979C16.0979 2.33252 16.1453 2.37966 16.1783 2.43648C16.2113 2.4933 16.2289 2.55781 16.2291 2.62355C16.2294 2.68928 16.2124 2.75392 16.1798 2.811L13.5 7.5L16.1798 12.189C16.2124 12.2461 16.2294 12.3107 16.2291 12.3765C16.2289 12.4422 16.2113 12.5067 16.1783 12.5635C16.1453 12.6203 16.0979 12.6675 16.0408 12.7002C15.9838 12.7329 15.9192 12.7501 15.8535 12.75H3V16.5H1.5V2.25Z" fill="#387BB6"/>
</svg>
