<svg width="18" height="18" viewBox="0 0 18 18" fill="none" xmlns="http://www.w3.org/2000/svg">
<path d="M3 2.25H15C15.1989 2.25 15.3897 2.32902 15.5303 2.46967C15.671 2.61032 15.75 2.80109 15.75 3V6.75C15.75 6.94891 15.671 7.13968 15.5303 7.28033C15.3897 7.42098 15.1989 7.5 15 7.5H3C2.80109 7.5 2.61032 7.42098 2.46967 7.28033C2.32902 7.13968 2.25 6.94891 2.25 6.75V3C2.25 2.80109 2.32902 2.61032 2.46967 2.46967C2.61032 2.32902 2.80109 2.25 3 2.25ZM4.5 9H9C9.19891 9 9.38968 9.07902 9.53033 9.21967C9.67098 9.36032 9.75 9.55109 9.75 9.75V12H10.5V16.5H7.5V12H8.25V10.5H3.75C3.55109 10.5 3.36032 10.421 3.21967 10.2803C3.07902 10.1397 3 9.94891 3 9.75V8.25H4.5V9ZM13.299 10.299L14.625 8.973L15.951 10.299C16.2132 10.5612 16.3917 10.8953 16.464 11.259C16.5363 11.6227 16.4992 11.9997 16.3572 12.3423C16.2153 12.6849 15.975 12.9777 15.6666 13.1837C15.3583 13.3897 14.9958 13.4997 14.625 13.4997C14.2542 13.4997 13.8917 13.3897 13.5834 13.1837C13.275 12.9777 13.0347 12.6849 12.8928 12.3423C12.7508 11.9997 12.7137 11.6227 12.786 11.259C12.8583 10.8953 13.0368 10.5612 13.299 10.299Z" fill="#387BB6"/>
</svg>
