<svg width="18" height="18" viewBox="0 0 18 18" fill="none" xmlns="http://www.w3.org/2000/svg">
<path d="M1.53711 9.75003H5.64486C5.7732 12.1252 6.53027 14.4236 7.83861 16.41C6.19981 16.1526 4.69251 15.3594 3.55237 14.1544C2.41224 12.9494 1.70355 11.4006 1.53711 9.75003ZM1.53711 8.25003C1.70355 6.5995 2.41224 5.05066 3.55237 3.84566C4.69251 2.64066 6.19981 1.84744 7.83861 1.59003C6.53027 3.57649 5.7732 5.87489 5.64486 8.25003H1.53711ZM16.4621 8.25003H12.3544C12.226 5.87489 11.4689 3.57649 10.1606 1.59003C11.7994 1.84744 13.3067 2.64066 14.4468 3.84566C15.587 5.05066 16.2957 6.5995 16.4621 8.25003ZM16.4621 9.75003C16.2957 11.4006 15.587 12.9494 14.4468 14.1544C13.3067 15.3594 11.7994 16.1526 10.1606 16.41C11.4689 14.4236 12.226 12.1252 12.3544 9.75003H16.4629H16.4621ZM7.14711 9.75003H10.8521C10.7287 11.7746 10.0911 13.7344 8.99961 15.444C7.90813 13.7344 7.27056 11.7746 7.14711 9.75003ZM7.14711 8.25003C7.27056 6.22541 7.90813 4.2657 8.99961 2.55603C10.0911 4.2657 10.7287 6.22541 10.8521 8.25003H7.14711Z" fill="#387BB6"/>
</svg>
