<svg width="18" height="18" viewBox="0 0 18 18" fill="none" xmlns="http://www.w3.org/2000/svg">
<path d="M2.83725 2.1195L9 0.75L15.1627 2.1195C15.3293 2.15652 15.4782 2.24922 15.585 2.3823C15.6918 2.51538 15.75 2.68089 15.75 2.8515V10.3417C15.7499 11.0826 15.567 11.8119 15.2174 12.465C14.8678 13.1181 14.3624 13.6749 13.746 14.0858L9 17.25L4.254 14.0858C3.63771 13.6749 3.13235 13.1183 2.78276 12.4653C2.43318 11.8124 2.25018 11.0832 2.25 10.3425V2.8515C2.25003 2.68089 2.30823 2.51538 2.41499 2.3823C2.52176 2.24922 2.6707 2.15652 2.83725 2.1195ZM9 10.125L11.2043 11.2838L10.7835 8.82975L12.5662 7.09125L10.1017 6.73275L9 4.5L7.8975 6.73275L5.43375 7.09125L7.2165 8.82975L6.7965 11.2838L9 10.125Z" fill="#387BB6"/>
</svg>
