<svg width="17" height="17" viewBox="0 0 17 17" fill="none" xmlns="http://www.w3.org/2000/svg">
<path d="M13.5653 6.97782L12.1763 5.58877C11.9845 5.39693 11.6736 5.39693 11.4818 5.58877L9.8222 7.24834V0.491153C9.8222 0.219677 9.60252 0 9.33105 0H7.36643C7.09495 0 6.87528 0.219677 6.87528 0.491153V7.24834L5.21574 5.58877C5.02389 5.39693 4.71306 5.39693 4.52121 5.58877L3.13216 6.97782C2.94032 7.16966 2.94032 7.4805 3.13216 7.67234L8.00149 12.5417C8.19334 12.7335 8.50414 12.7335 8.69598 12.5417L13.5653 7.67234C13.7572 7.4805 13.7572 7.16966 13.5653 6.97782Z" fill="#387BB6"/>
<path d="M16.2736 10.8708H14.3089C14.0375 10.8708 13.8178 11.0905 13.8178 11.362V13.8178H2.94692V11.362C2.94692 11.0905 2.72724 10.8708 2.45577 10.8708H0.491153C0.219677 10.8708 0 11.0905 0 11.362V15.2912C0 16.1037 0.660962 16.7647 1.47346 16.7647H15.2912C16.1037 16.7647 16.7647 16.1037 16.7647 15.2912V11.362C16.7647 11.0905 16.545 10.8708 16.2736 10.8708Z" fill="#387BB6"/>
</svg>
