<svg width="10" height="10" viewBox="0 0 10 10" fill="none" xmlns="http://www.w3.org/2000/svg">
    <path d="M8.09221 4.16221L7.26365 3.33365C7.14922 3.21922 6.96381 3.21922 6.84938 3.33365L5.85945 4.32357V0.292969C5.85945 0.131035 5.72842 0 5.56648 0H4.39461C4.23268 0 4.10164 0.131035 4.10164 0.292969V4.32357L3.11174 3.33365C2.9973 3.21922 2.81189 3.21922 2.69746 3.33365L1.86891 4.16221C1.75447 4.27664 1.75447 4.46205 1.86891 4.57648L4.77342 7.481C4.88785 7.59545 5.07324 7.59545 5.18768 7.481L8.09221 4.57648C8.20664 4.46205 8.20664 4.27664 8.09221 4.16221Z" fill="#387BB6"/>
    <path d="M9.70703 6.48438H8.53516C8.37322 6.48438 8.24219 6.61541 8.24219 6.77734V8.24219H1.75781V6.77734C1.75781 6.61541 1.62678 6.48438 1.46484 6.48438H0.292969C0.131035 6.48438 0 6.61541 0 6.77734V9.12109C0 9.60574 0.394258 10 0.878906 10H9.12109C9.60574 10 10 9.60574 10 9.12109V6.77734C10 6.61541 9.86897 6.48438 9.70703 6.48438Z" fill="#387BB6"/>
</svg>