<svg width="16" height="16" viewBox="0 0 16 16" fill="none" xmlns="http://www.w3.org/2000/svg">
<path d="M4.71315 10.2939C4.71315 10.0282 4.52878 9.86969 4.20346 9.86969C4.07062 9.86969 3.98065 9.8828 3.93359 9.89534V10.7479C3.98931 10.7604 4.05781 10.7646 4.15222 10.7646C4.49897 10.7646 4.71315 10.5894 4.71315 10.2939Z" fill="#387BB6"/>
<path d="M6.72911 9.87866C6.58343 9.87866 6.48928 9.89124 6.43359 9.90428V11.7924C6.48931 11.8055 6.57928 11.8055 6.66061 11.8055C7.25161 11.8097 7.63706 11.4843 7.63706 10.795C7.64124 10.1956 7.29001 9.87866 6.72911 9.87866Z" fill="#387BB6"/>
<path d="M10.47 0H4.04372C3.10491 0 2.34081 0.764624 2.34081 1.70291V7.99997H2.17449C1.79558 7.99997 1.48828 8.30696 1.48828 8.68621V12.8478C1.48828 13.227 1.79554 13.534 2.17449 13.534H2.34081V14.2971C2.34081 15.2364 3.10491 16 4.04372 16H12.8121C13.7503 16 14.5145 15.2363 14.5145 14.2971V4.03033L10.47 0ZM3.28849 9.43723C3.48959 9.40324 3.77226 9.37762 4.17052 9.37762C4.57299 9.37762 4.85985 9.45445 5.05259 9.60876C5.2367 9.75418 5.36095 9.99421 5.36095 10.2767C5.36095 10.5591 5.2668 10.7992 5.0955 10.9618C4.87269 11.1716 4.54319 11.2657 4.15775 11.2657C4.07196 11.2657 3.99507 11.2615 3.93494 11.2531V12.2851H3.28849V9.43723ZM12.8121 14.9571H4.04372C3.68021 14.9571 3.38419 14.6611 3.38419 14.2971V13.534H11.5581C11.9371 13.534 12.2443 13.227 12.2443 12.8478V8.68621C12.2443 8.30696 11.9371 7.99997 11.5581 7.99997H3.38419V1.70291C3.38419 1.33993 3.68024 1.04391 4.04372 1.04391L10.0798 1.03761V3.26876C10.0798 3.92045 10.6086 4.44973 11.2608 4.44973L13.4464 4.44346L13.471 14.297C13.471 14.6611 13.1755 14.9571 12.8121 14.9571ZM5.77779 12.272V9.43723C6.01755 9.39906 6.33006 9.37762 6.65986 9.37762C7.20795 9.37762 7.56336 9.47595 7.84185 9.68565C8.14155 9.90846 8.32981 10.2636 8.32981 10.7735C8.32981 11.3258 8.12871 11.7071 7.85018 11.9424C7.54631 12.195 7.08373 12.3148 6.51862 12.3148C6.1802 12.3148 5.94043 12.2934 5.77779 12.272ZM10.4512 10.5936V11.1245H9.41481V12.2851H8.75973V9.39906H10.5239V9.93408H9.41481V10.5936H10.4512Z" fill="#387BB6"/>
</svg>
