<svg width="40" height="40" viewBox="0 0 40 40" fill="none" xmlns="http://www.w3.org/2000/svg">
<g clip-path="url(#clip0_633_53245)">
<path d="M35.6513 2.6087H31.7383V10.4348H35.6513C36.3719 10.4348 36.9557 9.85096 36.9557 9.13042V3.91308C36.9556 3.19253 36.3718 2.6087 35.6513 2.6087Z" fill="white"/>
<path d="M4.34664 0C2.18891 0 0.433594 1.75531 0.433594 3.91305V33.4783C0.433594 35.636 2.18891 37.3913 4.34664 37.3913C6.50437 37.3913 8.25969 35.636 8.25969 33.4783V3.91305C8.25969 1.75531 6.50437 0 4.34664 0Z" fill="white"/>
<path d="M14.7841 0C12.6264 0 10.8711 1.75531 10.8711 3.91305V33.4783C10.8711 35.636 12.6264 37.3913 14.7841 37.3913C16.9419 37.3913 18.6972 35.636 18.6972 33.4783V3.91305C18.6972 1.75531 16.9419 0 14.7841 0Z" fill="white"/>
<path d="M25.2177 0C23.06 0 21.3047 1.75531 21.3047 3.91305V33.4783C21.3047 35.636 23.06 37.3913 25.2177 37.3913C27.3755 37.3913 29.1308 35.636 29.1308 33.4783V3.91305C29.1308 1.75531 27.3755 0 25.2177 0Z" fill="white"/>
<path d="M35.6513 26.9565H31.7383V34.7826V36.087C31.7383 38.2447 33.4936 40.0001 35.6513 40.0001C37.8091 40.0001 39.5644 38.2447 39.5644 36.087V30.8696C39.5644 28.7119 37.8091 26.9565 35.6513 26.9565Z" fill="white"/>
</g>
<defs>
<clipPath id="clip0_633_53245">
<rect width="40" height="40" fill="white"/>
</clipPath>
</defs>
</svg>
