<svg width="18" height="19" viewBox="0 0 18 19" fill="none" xmlns="http://www.w3.org/2000/svg">
<path d="M15.75 7.25V16.2448C15.7507 16.3432 15.732 16.4409 15.6949 16.5322C15.6579 16.6234 15.6032 16.7065 15.534 16.7766C15.4649 16.8468 15.3826 16.9026 15.2919 16.9409C15.2011 16.9792 15.1037 16.9993 15.0052 17H2.99475C2.79736 17 2.60804 16.9216 2.4684 16.7821C2.32875 16.6426 2.2502 16.4534 2.25 16.256V2.744C2.25 2.34125 2.58525 2 2.9985 2H10.5V6.5C10.5 6.69891 10.579 6.88968 10.7197 7.03033C10.8603 7.17098 11.0511 7.25 11.25 7.25H15.75ZM15.75 5.75H12V2.00225L15.75 5.75ZM6 5.75V7.25H8.25V5.75H6ZM6 8.75V10.25H12V8.75H6ZM6 11.75V13.25H12V11.75H6Z" fill="white"/>
</svg>
