<svg width="18" height="19" viewBox="0 0 18 19" fill="none" xmlns="http://www.w3.org/2000/svg">
<path d="M9 8.75C9.99456 8.75 10.9484 9.14509 11.6517 9.84835C12.3549 10.5516 12.75 11.5054 12.75 12.5V17H5.25V12.5C5.25 11.5054 5.64509 10.5516 6.34835 9.84835C7.05161 9.14509 8.00544 8.75 9 8.75ZM3.966 11.0045C3.84664 11.4071 3.77614 11.8226 3.756 12.242L3.75 12.5V17H1.5V13.625C1.49985 12.9782 1.73852 12.3541 2.17023 11.8724C2.60193 11.3907 3.19627 11.0854 3.83925 11.015L3.96675 11.0045H3.966ZM14.034 11.0045C14.7014 11.0452 15.3282 11.339 15.7864 11.8259C16.2447 12.3129 16.4999 12.9563 16.5 13.625V17H14.25V12.5C14.25 11.9803 14.175 11.4785 14.034 11.0045ZM4.125 6.5C4.62228 6.5 5.09919 6.69754 5.45083 7.04917C5.80246 7.40081 6 7.87772 6 8.375C6 8.87228 5.80246 9.34919 5.45083 9.70083C5.09919 10.0525 4.62228 10.25 4.125 10.25C3.62772 10.25 3.15081 10.0525 2.79917 9.70083C2.44754 9.34919 2.25 8.87228 2.25 8.375C2.25 7.87772 2.44754 7.40081 2.79917 7.04917C3.15081 6.69754 3.62772 6.5 4.125 6.5ZM13.875 6.5C14.3723 6.5 14.8492 6.69754 15.2008 7.04917C15.5525 7.40081 15.75 7.87772 15.75 8.375C15.75 8.87228 15.5525 9.34919 15.2008 9.70083C14.8492 10.0525 14.3723 10.25 13.875 10.25C13.3777 10.25 12.9008 10.0525 12.5492 9.70083C12.1975 9.34919 12 8.87228 12 8.375C12 7.87772 12.1975 7.40081 12.5492 7.04917C12.9008 6.69754 13.3777 6.5 13.875 6.5ZM9 2C9.79565 2 10.5587 2.31607 11.1213 2.87868C11.6839 3.44129 12 4.20435 12 5C12 5.79565 11.6839 6.55871 11.1213 7.12132C10.5587 7.68393 9.79565 8 9 8C8.20435 8 7.44129 7.68393 6.87868 7.12132C6.31607 6.55871 6 5.79565 6 5C6 4.20435 6.31607 3.44129 6.87868 2.87868C7.44129 2.31607 8.20435 2 9 2Z" fill="white"/>
</svg>
