<svg width="17" height="15" viewBox="0 0 17 15" fill="none" xmlns="http://www.w3.org/2000/svg">
<path d="M15.0078 0.527631V13.4768C15.0078 13.6781 14.8866 13.8597 14.7004 13.937C14.5064 14.0164 14.2953 13.9666 14.1575 13.8291C14.121 13.7923 10.5373 10.3299 6.97266 10.0211V3.98374C10.5433 3.67529 14.121 0.212201 14.1575 0.175346C14.3003 0.0329043 14.5141 -0.0109239 14.7004 0.0674355C14.8866 0.144467 15.0078 0.32642 15.0078 0.527631Z" fill="#387BB6"/>
<path d="M17 7.00225C17 7.73836 16.5989 8.38217 16.0039 8.72715V5.27734C16.5989 5.62232 17 6.26613 17 7.00225Z" fill="#387BB6"/>
<path d="M7.73067 12.7745C7.82454 12.6461 7.8513 12.4807 7.80266 12.329C7.66324 11.8922 7.56761 11.4801 7.51595 11.102C7.17894 11.0347 6.84123 10.9909 6.50611 10.9886C6.53596 11.3041 6.58526 11.6323 6.6704 11.9827H5.93116C5.82846 11.6661 5.73181 11.3347 5.65684 10.9866H2.98754C2.8527 10.9866 2.7252 10.9599 2.59375 10.9468C2.84404 12.9219 3.48735 14.573 3.52108 14.6578C3.59695 14.8469 3.77983 14.971 3.98363 14.971H6.47387C6.86095 14.971 7.09971 14.5477 6.90089 14.2171C6.89458 14.2065 6.61163 13.7153 6.30088 12.9788H7.32842C7.48746 12.9788 7.63677 12.9029 7.73067 12.7745Z" fill="#387BB6"/>
<path d="M2.98828 9.99048H5.97656V4.01392H2.98828C1.34044 4.01392 0 5.35436 0 7.0022C0 8.65004 1.34044 9.99048 2.98828 9.99048Z" fill="#387BB6"/>
</svg>
