<svg width="63" height="60" viewBox="0 0 63 60" fill="none" xmlns="http://www.w3.org/2000/svg">
<g clip-path="url(#clip0_544_21393)">
<path d="M40.3195 45.5692H21.5937V0H40.3195V33.9368H37.9904V2.37154H23.9228V43.1976H37.9904V40.1739L31.0847 35.6087L28.1384 37.9802L26.6944 36.1304L30.945 32.6917L40.3195 38.8933V45.5692Z" fill="#387BB6"/>
<path d="M50.2646 44.8103H47.9356V8.72727H39.1549V6.35573H50.2646V44.8103Z" fill="#387BB6"/>
<path d="M56.821 50.419H4.8826V13.3636H12.9179V15.7352H7.21167V48.0474H54.4919V15.7352H49.1001V13.3636H56.821V50.419Z" fill="#387BB6"/>
<path d="M14.0824 44.8103H11.7534V6.35573H23.1775V8.72727H14.0824V44.8103Z" fill="#387BB6"/>
<path d="M32.1212 60H29.7921V59.5731C29.7921 58.6297 29.424 57.7248 28.7688 57.0577C28.1136 56.3906 27.225 56.0158 26.2985 56.0158H0.0148315V18.415H6.04715V20.7866H2.34391V53.6443H26.2985C27.2024 53.6443 28.0939 53.8586 28.9024 54.2702C29.711 54.6818 30.4142 55.2795 30.9566 56.0158C31.499 55.2795 32.2023 54.6818 33.0108 54.2702C33.8193 53.8586 34.7108 53.6443 35.6148 53.6443H59.6858V20.7866H56.0873V18.415H62.0148V56.0158H35.6148C34.6882 56.0158 33.7996 56.3906 33.1444 57.0577C32.4892 57.7248 32.1212 58.6297 32.1212 59.5731V60Z" fill="#387BB6"/>
</g>
<defs>
<clipPath id="clip0_544_21393">
<rect width="62" height="60" fill="white" transform="translate(0.0148315)"/>
</clipPath>
</defs>
</svg>
