<svg width="57" height="57" viewBox="0 0 57 57" fill="none" xmlns="http://www.w3.org/2000/svg">
<g clip-path="url(#clip0_544_21366)">
<path d="M56.79 33.42H0V36.75H56.79V33.42Z" fill="#387BB6"/>
<path d="M0 56.86H3.46999V53.09H23.38V40.09H0V56.86ZM3.46999 43.41H19.89V49.76H3.46999V43.41Z" fill="#387BB6"/>
<path d="M26.76 53.09H39.93V56.86H43.55V53.09H56.79V40.09H26.79L26.76 53.09ZM43.55 43.41H53.31V49.76H43.55V43.41ZM30.24 43.41H39.93V49.76H30.24V43.41Z" fill="#387BB6"/>
<path d="M30.13 0H16.77V30.14H30.13V0ZM26.65 26.79H20.26V3.36H26.65V26.79Z" fill="#387BB6"/>
<path d="M37.04 10.03L43.43 3.34V30.14H46.92V10.03L53.3 3.34V30.14H56.79V0H51.89L46.92 5.19V0H42.02L33.55 8.76V30.14H37.04V10.03Z" fill="#387BB6"/>
<path d="M9.87 30.14H13.38V0H8.48L0 8.76V30.14H9.87ZM3.49 10.02L9.87 3.36V26.79H3.49V10.02Z" fill="#387BB6"/>
</g>
<defs>
<clipPath id="clip0_544_21366">
<rect width="56.79" height="56.87" fill="white"/>
</clipPath>
</defs>
</svg>
