<svg width="92" height="54" viewBox="0 0 92 54" fill="none" xmlns="http://www.w3.org/2000/svg">
<mask id="mask0_544_21375" style="mask-type:alpha" maskUnits="userSpaceOnUse" x="18" y="0" width="55" height="51">
<path d="M18.862 0H72.9445V50.4445H18.862V0Z" fill="#387BB6"/>
</mask>
<g mask="url(#mask0_544_21375)">
<path fill-rule="evenodd" clip-rule="evenodd" d="M60.6292 8.20803C53.2385 3.00964 45.9215 0.00263007 45.9215 0.00263007C45.9151 0.000811499 45.9087 -0.00100708 45.9033 -0.00100708C45.8969 -0.00100708 45.8915 0.000811499 45.8851 0.00263007C45.8851 0.00263007 38.5672 3.01055 31.1765 8.20803C24.6324 12.809 18.862 19.6205 18.862 19.6205C18.862 19.6205 19.5431 28.0477 22.1318 36.2459C24.2041 42.8054 27.793 49.1923 28.0004 49.516C28.9642 51.029 31.8485 50.7253 31.8485 48.3639C31.8485 47.0027 27.9003 40.7132 25.8945 35.0392C24.0386 29.7881 23.4212 25.7336 22.9575 20.9426C26.1281 17.4045 28.6496 14.7958 33.5106 11.4114C41.4223 5.90299 45.7014 4.36902 45.9015 4.28082H45.9024C46.1033 4.36902 50.3815 5.90299 58.2941 11.4114C63.1543 14.7958 65.6766 17.4045 68.8473 20.9426C68.3836 25.7336 67.7671 29.7881 65.9112 35.0392C63.9053 40.7132 59.9572 47.0027 59.9572 48.3639C59.9572 50.7253 62.8415 51.029 63.8053 49.516C64.0126 49.1923 67.6016 42.8054 69.6729 36.2459C72.2626 28.0477 72.9436 19.6205 72.9436 19.6205C72.9436 19.6205 67.1724 12.809 60.6292 8.20803Z" fill="#387BB6"/>
</g>
<mask id="mask1_544_21375" style="mask-type:alpha" maskUnits="userSpaceOnUse" x="0" y="9" width="18" height="45">
<path d="M0.789978 9.71837H17.7045V53.4641H0.789978V9.71837Z" fill="#387BB6"/>
</mask>
<g mask="url(#mask1_544_21375)">
<path fill-rule="evenodd" clip-rule="evenodd" d="M13.4191 51.3182C13.4191 51.8868 13.6448 52.4322 14.0467 52.8346C14.4485 53.237 14.9937 53.4634 15.5623 53.4641C15.8439 53.4638 16.1226 53.4081 16.3827 53.3002C16.6427 53.1922 16.879 53.0341 17.0779 52.8348C17.2768 52.6355 17.4345 52.399 17.5421 52.1388C17.6496 51.8786 17.7048 51.5997 17.7046 51.3182V19.6241L4.15987 10.1075C3.93004 9.94584 3.67061 9.83105 3.3964 9.76969C3.12219 9.70833 2.83858 9.70161 2.56177 9.74991C2.28496 9.79822 2.02039 9.90059 1.78316 10.0512C1.54594 10.2018 1.34072 10.3977 1.17923 10.6276C0.853639 11.0922 0.725375 11.6669 0.822511 12.2259C0.919648 12.7848 1.23427 13.2826 1.69752 13.6101L13.4182 21.8455V51.3163L13.4191 51.3182Z" fill="#387BB6"/>
</g>
<path fill-rule="evenodd" clip-rule="evenodd" d="M18.2928 7.28885C19.3563 7.28885 20.3763 7.71132 21.1283 8.46334C21.8803 9.21535 22.3028 10.2353 22.3028 11.2988C22.3028 12.3623 21.8803 13.3823 21.1283 14.1343C20.3763 14.8863 19.3563 15.3088 18.2928 15.3088C17.2293 15.3088 16.2094 14.8863 15.4574 14.1343C14.7053 13.3823 14.2829 12.3623 14.2829 11.2988C14.2829 10.2353 14.7053 9.21535 15.4574 8.46334C16.2094 7.71132 17.2293 7.28885 18.2928 7.28885Z" fill="#387BB6"/>
<mask id="mask2_544_21375" style="mask-type:alpha" maskUnits="userSpaceOnUse" x="74" y="9" width="18" height="45">
<path d="M74.1012 9.71837H91.0148V53.4641H74.1021L74.1012 9.71837Z" fill="#387BB6"/>
</mask>
<g mask="url(#mask2_544_21375)">
<path fill-rule="evenodd" clip-rule="evenodd" d="M78.3867 51.3182C78.3867 51.887 78.1609 52.4326 77.7588 52.8349C77.3568 53.2373 76.8114 53.4636 76.2426 53.4641C75.6743 53.4631 75.1296 53.2366 74.7282 52.8342C74.3269 52.4318 74.1017 51.8865 74.1022 51.3182V19.6241L87.646 10.1075C87.8757 9.94592 88.1349 9.83116 88.409 9.76983C88.6831 9.70849 88.9665 9.70179 89.2432 9.75009C89.5199 9.7984 89.7843 9.90077 90.0213 10.0513C90.2584 10.2019 90.4635 10.3978 90.6248 10.6276C90.951 11.0921 91.0797 11.667 90.9827 12.2263C90.8857 12.7855 90.571 13.2835 90.1074 13.611L78.3867 21.8464V51.3173V51.3182Z" fill="#387BB6"/>
</g>
<path fill-rule="evenodd" clip-rule="evenodd" d="M73.5128 7.28885C72.4493 7.28885 71.4294 7.71132 70.6774 8.46334C69.9254 9.21535 69.5029 10.2353 69.5029 11.2988C69.5029 12.3623 69.9254 13.3823 70.6774 14.1343C71.4294 14.8863 72.4493 15.3088 73.5128 15.3088C74.5763 15.3088 75.5963 14.8863 76.3483 14.1343C77.1003 13.3823 77.5228 12.3623 77.5228 11.2988C77.5228 10.2353 77.1003 9.21535 76.3483 8.46334C75.5963 7.71132 74.5763 7.28885 73.5128 7.28885Z" fill="#387BB6"/>
<path fill-rule="evenodd" clip-rule="evenodd" d="M39.13 28.798H45.3331V22.9822H39.13V28.798ZM46.4698 28.798H52.672V22.9822H46.4698V28.798ZM39.13 35.7413H45.3331V29.9255H39.13V35.7413ZM46.4698 35.7413H52.672V29.9255H46.4698V35.7413Z" fill="#387BB6"/>
</svg>
