<svg width="55" height="63" viewBox="0 0 55 63" fill="none" xmlns="http://www.w3.org/2000/svg">
<g clip-path="url(#clip0_544_21355)">
<path fill-rule="evenodd" clip-rule="evenodd" d="M30.4557 53.0997L29.2748 54.3012C29.5301 54.4809 29.8359 54.5761 30.1488 54.5733C31.0414 54.5704 31.7115 53.7676 31.6747 52.8605C31.6352 51.8335 30.8039 50.9628 29.7881 50.9628C29.0372 50.9628 28.3892 51.4391 28.0839 52.1041C28.1632 52.366 28.207 52.6482 28.207 52.9384C28.207 53.3619 27.8899 53.5833 27.5792 53.5919C27.2676 53.5832 26.9509 53.362 26.9509 52.9384C26.9509 52.648 26.9946 52.366 27.074 52.1041C26.7685 51.4391 26.1207 50.9628 25.3698 50.9628C24.3542 50.9628 23.5225 51.8335 23.4829 52.8607C23.4464 53.7676 24.1165 54.5704 25.0091 54.5734C25.322 54.5762 25.6279 54.4809 25.8832 54.3012L24.7019 53.0997C24.7883 53.0103 24.8921 52.9391 25.007 52.8905C25.1219 52.8419 25.2455 52.8169 25.3704 52.8169C25.4953 52.8169 25.6188 52.8419 25.7337 52.8905C25.8486 52.9391 25.9524 53.0103 26.0389 53.0997L27.5792 54.7147L29.1192 53.0997C29.2056 53.0103 29.3094 52.9392 29.4242 52.8906C29.5391 52.842 29.6626 52.817 29.7874 52.817C29.9123 52.817 30.0358 52.842 30.1506 52.8906C30.2655 52.9392 30.3692 53.0103 30.4557 53.0997ZM29.3123 47.5613C29.3123 47.1937 29.0301 46.8983 28.6845 46.8983C28.3393 46.8983 28.0571 47.1937 28.0571 47.5615H28.0516V48.6179H29.0172C29.1495 48.3552 29.3123 47.867 29.3123 47.5615" fill="#387BB6"/>
<path fill-rule="evenodd" clip-rule="evenodd" d="M30.7901 57.7024C30.9466 57.8591 31.1951 57.897 31.3822 57.7735C31.6378 57.6045 31.5888 57.1821 31.3865 56.978C31.3431 56.9348 31.2916 56.9006 31.235 56.8772C31.1783 56.8539 31.1175 56.8418 31.0561 56.8418C30.9947 56.8418 30.9339 56.8539 30.8772 56.8772C30.8206 56.9006 30.7691 56.9348 30.7258 56.978C30.3066 56.5587 30.6575 55.8401 31.2439 55.9198C31.5665 55.9641 31.8633 56.1189 32.0831 56.3573C32.5804 56.8957 32.5706 57.7554 32.0592 58.2841C31.9292 58.4182 31.7733 58.5249 31.6008 58.5979C31.4284 58.6709 31.2429 58.7087 31.0554 58.7092C30.6964 58.7092 30.3392 58.5705 30.0666 58.298L27.6217 55.8148L25.1796 58.298C25.0505 58.4282 24.8966 58.5315 24.7269 58.6021C24.5572 58.6727 24.375 58.7091 24.191 58.7092C24.0034 58.7087 23.8179 58.6709 23.6453 58.5979C23.4728 58.5249 23.3168 58.4182 23.1867 58.2841C22.6759 57.7554 22.6646 56.8957 23.1632 56.3573C23.3824 56.1188 23.6787 55.964 24.0009 55.9196C24.5891 55.8401 24.9394 56.5587 24.5205 56.978C24.4773 56.9349 24.426 56.9006 24.3694 56.8773C24.3128 56.8539 24.2522 56.8419 24.1909 56.8419C24.1297 56.8419 24.069 56.8539 24.0124 56.8773C23.9559 56.9006 23.9045 56.9349 23.8614 56.978C23.6576 57.1822 23.6088 57.6045 23.864 57.7735C24.0509 57.897 24.2999 57.8591 24.4561 57.7024L26.9988 55.1912L26.5758 54.8042C26.1516 55.1307 25.6298 55.3073 25.0929 55.3061C23.7425 55.3061 22.6436 54.207 22.6436 52.8538C22.6436 51.3099 23.8987 50.052 25.4422 50.052C26.3189 50.052 27.2319 50.6136 27.6217 51.281C28.0143 50.6137 28.926 50.052 29.804 50.052C31.3472 50.052 32.6023 51.3099 32.6023 52.8538C32.6023 54.207 31.5037 55.3059 30.1521 55.3059C29.6156 55.307 29.0941 55.1303 28.6702 54.804L28.2474 55.1913L30.7901 57.7026V57.7024ZM27.1568 60.7839H28.0896V57.8437H27.1568V60.7841V60.7839ZM26.5325 45.9763C26.9304 45.9763 27.1638 46.1583 27.1638 46.1583V45.5723L26.707 45.6074V44.6733L27.1969 44.7082L27.1638 44.216H28.0824L28.0491 44.7082L28.5392 44.6733V45.6074L28.0824 45.5723V46.1583C28.0824 46.1583 28.3158 45.9765 28.7136 45.9765C29.5727 45.9765 30.2705 46.6755 30.2705 47.5339C30.2705 48.2764 29.7596 49.0774 29.7023 49.1655L29.5639 49.3766H25.6824L25.5439 49.1655C25.4854 49.0774 24.9757 48.2764 24.9757 47.5339C24.9757 46.6755 25.6735 45.9765 26.5325 45.9765V45.9763ZM27.6219 42.2044C23.2719 42.207 19.7408 45.7387 19.7408 50.0952V58.7092L27.6217 62.9228L35.5056 58.7092V50.0952C35.5056 45.7387 31.9739 42.207 27.6217 42.2044H27.6219Z" fill="#387BB6"/>
<path fill-rule="evenodd" clip-rule="evenodd" d="M27.2635 48.6179V47.5608H27.255C27.255 47.1979 26.9756 46.8983 26.6288 46.8983C26.2822 46.8983 26.0028 47.1979 26.0028 47.5608C26.0028 47.8679 26.1628 48.354 26.2951 48.6179H27.2635ZM48.8667 46.4292C50.5989 43.6532 52.1322 40.3919 53.2665 37.081C52.1817 35.9855 51.4122 34.9097 50.9215 33.7668C50.759 33.7668 45.8981 43.4967 48.8665 46.4292H48.8667ZM46.7425 44.2407C43.1739 47.0229 37.192 51.1958 37.192 57.5286C39.5717 55.8678 42.1804 53.7874 44.7753 51.2274C45.8709 50.1429 47.0474 48.6672 48.0659 47.1417L47.9122 46.9897C47.2052 46.2918 46.8529 45.3288 46.7427 44.2407H46.7425ZM46.8051 6.8784V7.80603C48.9625 7.80603 49.5569 11.0992 52.3656 11.0992C53.6064 11.0992 55 10.0702 55 8.20632H54.06C54.06 8.20632 53.9868 9.26029 52.6523 9.26029C50.2744 9.26029 49.8181 6.8784 46.8051 6.8784ZM30.1002 22.2767C30.1002 20.8526 28.9335 19.6972 27.5 19.6972C26.0657 19.6972 24.8998 20.8526 24.8998 22.2767C24.8998 23.6996 26.0659 24.856 27.5 24.856C28.9335 24.856 30.1002 23.6996 30.1002 22.2767ZM4.39343 33.7668C3.90267 34.9092 3.13497 35.9855 2.04877 37.0809C3.1829 40.3919 4.71618 43.6516 6.44877 46.4292C9.41735 43.4963 4.55472 33.7668 4.39343 33.7668Z" fill="#387BB6"/>
<path fill-rule="evenodd" clip-rule="evenodd" d="M8.25742 44.2407C8.14601 45.3288 7.79372 46.2918 7.0865 46.9898L6.93406 47.1417C7.95271 48.6672 9.12822 50.1431 10.2252 51.2274C12.8189 53.7874 15.4281 55.8678 17.808 57.5285C17.808 51.1958 11.8269 47.0229 8.25742 44.2406V44.2407ZM24.9314 30.1712C25.479 29.6815 26.0154 29.1797 26.5404 28.6662C26.903 28.7313 27.2773 28.767 27.657 28.767C28.0315 28.7666 28.4052 28.7328 28.7737 28.6662C29.2986 29.1797 29.835 29.6815 30.3824 30.1712C30.83 30.0121 31.2629 29.8149 31.6763 29.5819C30.6484 28.6555 29.6426 27.7053 28.6598 26.732C28.3391 26.8073 28.0001 26.847 27.657 26.847C27.3138 26.847 26.9763 26.8073 26.6543 26.732C25.6716 27.705 24.6662 28.6552 23.639 29.5819C24.052 29.8147 24.4844 30.0118 24.9314 30.1712ZM2.5903 11.1024C5.35268 11.1024 5.93769 7.85061 8.05953 7.85061V6.93492C5.09625 6.93492 4.64705 9.28751 2.30911 9.28751C0.996714 9.28751 0.924383 8.24564 0.924383 8.24564H-0.000183105C-0.000183105 10.0839 1.37093 11.1024 2.5903 11.1024ZM48.3811 36.5025C47.5759 35.6026 46.9772 34.7055 46.5666 33.7666L46.5551 33.7905C44.9817 37.0761 43.9077 40.0124 44.1637 45.1787C44.6499 44.7848 46.8211 43.0678 46.8211 43.0678C46.8924 40.8788 47.6542 38.3991 48.3811 36.5026V36.5025ZM10.994 45.1787C11.249 40.0124 10.1752 37.0759 8.60227 33.7892L8.58972 33.7668C8.1789 34.7058 7.58009 35.6029 6.77649 36.5028C7.50334 38.4005 8.26379 40.877 8.33506 43.0678C8.33506 43.0678 10.508 44.7835 10.994 45.1787Z" fill="#387BB6"/>
<path fill-rule="evenodd" clip-rule="evenodd" d="M7.5341 2.99171V2.05881H10.4086C9.275 3.18878 8.007 3.46377 7.5341 2.99171ZM47.421 2.05881V2.99171C46.9482 3.46377 45.68 3.18878 44.5465 2.05881H47.421ZM47.89 16.9823C44.7327 16.9823 42.6375 18.7117 41.945 19.4015L40.9683 18.7117C42.0513 18.1752 43.2033 17.0997 43.5626 16.3231L42.9021 15.6637C42.0638 16.499 39.9703 16.4906 39.9703 14.3619C39.9703 9.8659 46.9735 9.19203 46.9735 11.1434H47.9083C47.9083 7.42399 45.0954 8.58203 45.0954 8.58203L44.4331 7.9222C48.4737 3.89125 51.1999 6.14416 51.1999 8.23281H52.1363C52.6889 7.67933 54.2703 4.81309 52.5027 3.05032C51.48 2.02793 50.0215 2.05723 48.356 2.05881C48.356 2.05881 48.3492 0.080719 46.1533 0.080719C42.5145 0.080719 39.0337 2.95538 36.4885 0.413092C36.2558 0.645087 35.8262 1.0724 35.8262 1.0724C35.8262 1.0724 36.6425 3.57836 38.7219 3.57836V4.51424C37.9549 4.51424 33.2317 6.52444 33.2317 11.1434H32.2983V4.51424H33.2317V2.05881C29.3511 2.05881 27.477 4.51424 27.477 4.51424C27.477 4.51424 25.6019 2.05881 21.722 2.05881V4.51424H22.657V11.1434H21.722C21.722 6.52444 16.9976 4.51424 16.2322 4.51424V3.57818C18.3116 3.57818 19.1276 1.0724 19.1276 1.0724C19.1276 1.0724 18.6977 0.645087 18.4669 0.413092C15.9182 2.9552 12.4406 0.080719 8.80087 0.080719C6.60476 0.080719 6.5991 2.05881 6.5991 2.05881C4.93089 2.05723 3.4756 2.02793 2.45253 3.05032C0.684921 4.81309 2.2663 7.67933 2.81931 8.23264H3.75413C3.75413 6.14434 6.48044 3.89143 10.5204 7.92238L9.86002 8.58203C9.86002 8.58203 7.04564 7.42399 7.04564 11.1434H7.97905C7.97905 9.19203 14.9851 9.8659 14.9851 14.3619C14.9851 16.4906 12.8912 16.499 12.0533 15.6637C12.0533 15.6637 11.7114 16.0015 11.3912 16.3231C11.7507 17.0997 12.9022 18.1752 13.9871 18.7115L13.0104 19.4015C12.3175 18.7117 10.2224 16.9821 7.0651 16.9821C-0.0290176 16.9821 -1.23407 26.8357 1.63937 35.9934C3.30759 34.17 4.03126 32.3923 4.03126 30.157V26.3507C4.54765 26.3507 4.96714 26.7685 4.96714 27.2853V30.157C4.96714 30.917 4.88773 31.6265 4.72945 32.3067C5.08068 33.036 5.92319 34.8355 6.23126 35.5476C7.62376 33.877 8.23495 32.2093 8.23495 30.157V27.601C8.75135 27.601 9.16995 28.0187 9.16995 28.5339V30.1572C9.16995 30.8947 9.03431 31.8375 8.88328 32.5233L9.30984 33.4119C9.66991 34.1606 10.0137 34.9036 10.3278 35.6719C11.7926 33.9591 12.4394 32.2609 12.4394 30.157V28.8514C12.9556 28.8514 13.3744 29.269 13.3744 29.786V30.157C13.3744 32.6631 12.5653 34.6395 10.7011 36.6597C10.8151 36.9773 10.9197 37.2982 11.0147 37.6219L20.3689 28.0229C19.7635 27.2743 19.2809 26.4357 18.9387 25.538C18.7637 25.0756 19.112 24.5825 19.6076 24.5825C19.8976 25.5858 20.3797 26.5243 21.0277 27.3466L23.677 24.6283C23.2547 23.9357 23.0317 23.1416 23.0323 22.3322C23.0323 20.2005 24.5475 18.4155 26.559 17.9964L25.8967 16.675V8.07909H29.0555V16.6753L28.3948 17.9966C30.4074 18.4157 31.9205 20.2007 31.9205 22.3324C31.9213 23.1415 31.6991 23.9355 31.278 24.6284L43.9448 37.6278C44.0406 37.3041 44.1452 36.983 44.2585 36.6649C42.3915 34.6442 41.5795 32.6661 41.5795 30.1572V29.7862C41.5795 29.269 41.9982 28.8514 42.516 28.8514V30.1572C42.516 32.2623 43.1628 33.9624 44.6319 35.6777C44.9458 34.9066 45.2912 34.162 45.6523 33.4121L46.0732 32.5347C45.9207 31.8476 45.7853 30.8975 45.7853 30.1572V28.5341C45.7853 28.0189 46.2023 27.6012 46.7185 27.6012V30.1572C46.7185 32.2095 47.3301 33.8771 48.7226 35.5478C49.032 34.8355 49.8731 33.0362 50.2244 32.3071C50.0663 31.6267 49.9879 30.9172 49.9879 30.1573V27.2855C49.9879 26.7687 50.4063 26.3507 50.9229 26.3507V30.1572C50.9229 32.3925 51.6462 34.1704 53.3144 35.9935C56.1889 26.8357 54.9842 16.9823 47.89 16.9823Z" fill="#387BB6"/>
<path fill-rule="evenodd" clip-rule="evenodd" d="M11.3466 38.5974C11.4209 38.9045 11.4922 39.2215 11.5541 39.5468C12.8489 38.835 17.4132 36.2771 22.4975 32.1149C24.015 32.9029 25.7471 33.3495 27.5775 33.3495C29.346 33.3511 31.0886 32.9274 32.656 32.1147C37.7473 36.2856 42.3167 38.8431 43.6062 39.5508C43.6663 39.2328 43.7346 38.9163 43.8109 38.6016C42.5465 37.8467 37.7751 34.895 32.3182 30.1712C30.8909 31.0367 29.2502 31.4938 27.5775 31.4919C25.9038 31.494 24.2621 31.0369 22.8338 30.1712C17.3839 34.8853 12.6219 37.8369 11.3466 38.5974Z" fill="#387BB6"/>
<path fill-rule="evenodd" clip-rule="evenodd" d="M31.8054 37.3623V35.5864H35.7737C35.3488 35.2969 34.9269 35.003 34.5081 34.7047H20.6512C20.2316 35.0026 19.8091 35.2965 19.3839 35.5864H23.3594V37.3623C23.8776 37.3623 24.2976 36.9675 24.2976 36.4791V35.5864H30.8658V36.4791C30.8658 36.9675 31.2874 37.3623 31.8054 37.3623ZM43.0229 45.9658V45.9575H38.1861C37.8031 44.9538 37.2824 44.0073 36.6386 43.1448H42.0454V44.0933C42.0454 44.6114 42.4628 45.0311 42.9769 45.0311V42.2056H35.8579C34.7543 41.01 33.4039 40.0441 31.8881 39.3927H37.14V40.343C37.14 40.8598 37.5576 41.2806 38.0729 41.2806V39.3927H41.1681C40.6558 39.0867 40.1473 38.7746 39.6426 38.4565H15.0351C14.5306 38.7741 14.0226 39.0862 13.5112 39.3927H16.6121V41.2806C17.1262 41.2806 17.5437 40.8598 17.5437 40.343V39.3927H22.7841C21.2717 40.0441 19.9225 41.01 18.8188 42.2056H11.6996V45.031C12.2167 45.031 12.6342 44.6115 12.6342 44.0933V43.1448H18.0393C17.395 44.0069 16.8742 44.9535 16.4918 45.9575H11.6633L11.6619 45.9716C12.0191 46.2726 12.3702 46.5806 12.7152 46.8953H16.1762C15.8762 47.9436 15.7234 49.0279 15.7222 50.1176C15.9317 50.3937 16.1334 50.6755 16.327 50.9628H17.5885V50.122C17.5885 44.7239 21.963 40.3293 27.3376 40.3235C32.7167 40.3293 37.0882 44.7239 37.0882 50.122V50.9626H38.3521C38.5449 50.6766 38.7462 50.3944 38.9555 50.1192C38.9549 49.0288 38.8016 47.9439 38.5002 46.8953H41.9625C42.3162 46.5737 42.6708 46.2634 43.0229 45.9658Z" fill="#387BB6"/>
</g>
<defs>
<clipPath id="clip0_544_21355">
<rect width="55" height="63" fill="white"/>
</clipPath>
</defs>
</svg>
