<svg width="18" height="18" viewBox="0 0 18 18" fill="none" xmlns="http://www.w3.org/2000/svg">
<path d="M1.5 6.74996H3.75V15.75H1.5C1.30109 15.75 1.11032 15.6709 0.96967 15.5303C0.829018 15.3896 0.75 15.1989 0.75 15V7.49996C0.75 7.30105 0.829018 7.11028 0.96967 6.96963C1.11032 6.82898 1.30109 6.74996 1.5 6.74996ZM5.46975 5.78021L10.2697 0.980212C10.3335 0.916232 10.4183 0.877437 10.5084 0.87096C10.5985 0.864484 10.688 0.890762 10.7603 0.944962L11.4 1.42496C11.5777 1.55835 11.7119 1.74135 11.7857 1.9509C11.8595 2.16046 11.8696 2.38717 11.8148 2.60246L10.95 5.99996H15.75C16.1478 5.99996 16.5294 6.158 16.8107 6.4393C17.092 6.72061 17.25 7.10214 17.25 7.49996V9.07796C17.2502 9.27398 17.212 9.46814 17.1375 9.64946L14.8162 15.2857C14.7596 15.4231 14.6634 15.5406 14.5399 15.6233C14.4164 15.7059 14.2711 15.75 14.1225 15.75H6C5.80109 15.75 5.61032 15.6709 5.46967 15.5303C5.32902 15.3896 5.25 15.1989 5.25 15V6.31046C5.25004 6.11157 5.32909 5.92083 5.46975 5.78021Z" fill="#387BB6"/>
</svg>
