<svg width="16" height="16" viewBox="0 0 16 16" fill="none" xmlns="http://www.w3.org/2000/svg">
<path d="M4.48579 4.64558C4.76542 6.10423 5.03318 7.50284 5.15284 8.93335H9.59447C9.71413 7.50284 9.98189 6.10423 10.2615 4.64558C10.4581 3.63456 10.6725 2.3609 9.84538 1.22487C8.64578 -0.407968 6.10144 -0.408625 4.90199 1.2249C4.17291 2.19102 4.22256 3.41475 4.48579 4.64558Z" fill="#387BB6"/>
<path d="M9.71371 15.5309C9.35387 15.1203 9.07802 14.6456 8.90293 14.1238C8.34532 14.1238 0.636468 14.1238 0.358367 14.1238L0 15.1713V15.9999H10.198C10.0243 15.857 9.86212 15.7001 9.71371 15.5309Z" fill="#387BB6"/>
<path d="M1.67043 13.1858H8.70623C8.61003 12.1691 8.91038 11.1229 9.53044 10.3148C9.53138 10.1663 9.5345 10.0187 9.5395 9.8714C8.38273 9.8714 6.36535 9.8714 5.20848 9.8714C5.22323 10.2331 5.21698 10.9386 5.21817 11.3097H1.32144L0.679688 13.1858H1.67043Z" fill="#387BB6"/>
<path d="M12.8147 9.62118C10.9043 9.60668 9.4117 11.3432 9.65006 13.1857C9.82153 14.76 11.2181 16.0153 12.8148 15.9998C14.559 16.002 16.0017 14.5782 16.0016 12.8105C16.0016 11.052 14.5719 9.62118 12.8147 9.62118ZM11.3116 13.1657L11.9743 12.5022L12.4085 12.9368C12.7783 12.567 13.2851 12.0591 13.6549 11.6892L14.3175 12.3527L12.4085 14.2632C12.1615 14.0159 11.5652 13.4194 11.3116 13.1657Z" fill="#387BB6"/>
</svg>
