<svg width="18" height="18" viewBox="0 0 18 18" fill="none" xmlns="http://www.w3.org/2000/svg">
<path d="M16.6215 4.24195C16.0489 4.49522 15.4417 4.66155 14.82 4.73545C15.4753 4.34352 15.9658 3.72671 16.2 2.99994C15.585 3.36594 14.9108 3.62244 14.208 3.76119C13.736 3.25613 13.1103 2.92117 12.4282 2.80838C11.7462 2.6956 11.046 2.81131 10.4365 3.13753C9.82695 3.46376 9.3423 3.98221 9.05785 4.61229C8.77339 5.24237 8.70507 5.94878 8.86351 6.6217C7.61634 6.55919 6.39626 6.23509 5.28247 5.67044C4.16869 5.1058 3.1861 4.31323 2.39851 3.3442C2.11973 3.82303 1.97323 4.36736 1.97401 4.92144C1.97401 6.00894 2.52751 6.9697 3.36901 7.5322C2.87102 7.51652 2.38398 7.38203 1.94851 7.13995V7.17894C1.94866 7.90322 2.19929 8.60516 2.65789 9.16574C3.1165 9.72632 3.75487 10.1111 4.46476 10.2547C4.00247 10.38 3.51774 10.3984 3.04726 10.3087C3.24741 10.9321 3.63751 11.4773 4.16295 11.868C4.68839 12.2587 5.32286 12.4753 5.97751 12.4874C5.32687 12.9984 4.58189 13.3762 3.78517 13.5991C2.98845 13.822 2.1556 13.8856 1.33426 13.7864C2.76803 14.7085 4.43708 15.198 6.14176 15.1964C11.9115 15.1964 15.0668 10.4167 15.0668 6.27145C15.0668 6.13645 15.063 5.99994 15.057 5.86645C15.6712 5.42257 16.2012 4.87271 16.6223 4.24269L16.6215 4.24195Z" fill="#387BB6"/>
</svg>
