<svg width="18" height="18" viewBox="0 0 18 18" fill="none" xmlns="http://www.w3.org/2000/svg">
<path d="M9 2C10.9019 2 11.1392 2.007 11.8854 2.042C12.6309 2.077 13.1384 2.1939 13.585 2.3675C14.047 2.5453 14.4362 2.7861 14.8254 3.1746C15.1813 3.52453 15.4568 3.94781 15.6325 4.415C15.8054 4.8609 15.923 5.3691 15.958 6.1146C15.9909 6.8608 16 7.0981 16 9C16 10.9019 15.993 11.1392 15.958 11.8854C15.923 12.6309 15.8054 13.1384 15.6325 13.585C15.4573 14.0524 15.1818 14.4758 14.8254 14.8254C14.4754 15.1812 14.0521 15.4566 13.585 15.6325C13.1391 15.8054 12.6309 15.923 11.8854 15.958C11.1392 15.9909 10.9019 16 9 16C7.0981 16 6.8608 15.993 6.1146 15.958C5.3691 15.923 4.8616 15.8054 4.415 15.6325C3.94763 15.4571 3.52427 15.1817 3.1746 14.8254C2.81858 14.4755 2.54315 14.0522 2.3675 13.585C2.1939 13.1391 2.077 12.6309 2.042 11.8854C2.0091 11.1392 2 10.9019 2 9C2 7.0981 2.007 6.8608 2.042 6.1146C2.077 5.3684 2.1939 4.8616 2.3675 4.415C2.54267 3.94753 2.81816 3.52412 3.1746 3.1746C3.52437 2.81846 3.9477 2.54301 4.415 2.3675C4.8616 2.1939 5.3684 2.077 6.1146 2.042C6.8608 2.0091 7.0981 2 9 2ZM9 5.5C8.07174 5.5 7.1815 5.86875 6.52513 6.52513C5.86875 7.1815 5.5 8.07174 5.5 9C5.5 9.92826 5.86875 10.8185 6.52513 11.4749C7.1815 12.1313 8.07174 12.5 9 12.5C9.92826 12.5 10.8185 12.1313 11.4749 11.4749C12.1313 10.8185 12.5 9.92826 12.5 9C12.5 8.07174 12.1313 7.1815 11.4749 6.52513C10.8185 5.86875 9.92826 5.5 9 5.5ZM13.55 5.325C13.55 5.09294 13.4578 4.87038 13.2937 4.70628C13.1296 4.54219 12.9071 4.45 12.675 4.45C12.4429 4.45 12.2204 4.54219 12.0563 4.70628C11.8922 4.87038 11.8 5.09294 11.8 5.325C11.8 5.55706 11.8922 5.77962 12.0563 5.94372C12.2204 6.10781 12.4429 6.2 12.675 6.2C12.9071 6.2 13.1296 6.10781 13.2937 5.94372C13.4578 5.77962 13.55 5.55706 13.55 5.325ZM9 6.9C9.55695 6.9 10.0911 7.12125 10.4849 7.51508C10.8788 7.9089 11.1 8.44305 11.1 9C11.1 9.55695 10.8788 10.0911 10.4849 10.4849C10.0911 10.8788 9.55695 11.1 9 11.1C8.44305 11.1 7.9089 10.8788 7.51508 10.4849C7.12125 10.0911 6.9 9.55695 6.9 9C6.9 8.44305 7.12125 7.9089 7.51508 7.51508C7.9089 7.12125 8.44305 6.9 9 6.9Z" fill="#387BB6"/>
</svg>
