<svg width="18" height="18" viewBox="0 0 18 18" fill="none" xmlns="http://www.w3.org/2000/svg">
<path d="M8.26515 12.0655C7.10231 11.9442 6.05385 11.6578 5.1562 10.9557C5.04482 10.8684 4.92982 10.7842 4.82818 10.6866C4.43528 10.3093 4.39569 9.87711 4.70659 9.43174C4.97255 9.05063 5.41902 8.94867 5.88309 9.16751C5.97295 9.20992 6.05856 9.26286 6.14057 9.31973C7.81349 10.4692 10.1117 10.5009 11.7909 9.37142C11.9572 9.24385 12.1351 9.13986 12.3412 9.08676C12.7419 8.98386 13.1157 9.13106 13.3307 9.4817C13.5764 9.88214 13.5733 10.273 13.2706 10.5839C12.8062 11.0605 12.2477 11.4054 11.6272 11.646C11.0404 11.8735 10.3977 11.988 9.76165 12.0641C9.85764 12.1685 9.90288 12.2199 9.96289 12.2802C10.8266 13.148 11.6941 14.0122 12.555 14.8827C12.8483 15.1793 12.9096 15.5471 12.7481 15.892C12.5715 16.2691 12.1762 16.5171 11.7887 16.4906C11.5431 16.4736 11.3516 16.3514 11.1815 16.18C10.5297 15.5241 9.86565 14.8803 9.22705 14.212C9.0412 14.0177 8.95182 14.0545 8.78781 14.2232C8.13208 14.8982 7.46568 15.5629 6.79535 16.2238C6.49435 16.5206 6.13617 16.574 5.7871 16.4045C5.41604 16.2246 5.17992 15.8459 5.19814 15.4652C5.21071 15.2077 5.33733 15.011 5.51407 14.8346C6.36883 13.9811 7.22124 13.1254 8.07396 12.2705C8.13036 12.2136 8.18298 12.1533 8.26515 12.0655Z" fill="#387BB6"/>
<path d="M8.97344 9.09235C6.89897 9.08528 5.19793 7.36554 5.21003 5.28778C5.22196 3.18708 6.92411 1.4942 9.019 1.50001C11.1181 1.50567 12.803 3.2229 12.7925 5.34543C12.7818 7.41895 11.069 9.09957 8.97344 9.09235ZM10.8588 5.2928C10.8551 4.26115 10.0335 3.43985 9.00392 3.4389C7.96566 3.4378 7.13666 4.27403 7.14467 5.31511C7.15237 6.34284 7.98106 7.15833 9.0135 7.15456C10.0428 7.15094 10.8622 6.3243 10.8588 5.2928Z" fill="#387BB6"/>
</svg>
