<svg width="18" height="18" viewBox="0 0 18 18" fill="none" xmlns="http://www.w3.org/2000/svg">
<path d="M14.2771 10.1609C14.0185 9.84586 14.0925 9.70571 14.2771 9.42414C14.2805 9.42093 16.4159 6.57564 16.6359 5.61071L16.6372 5.61007C16.7465 5.25843 16.6372 5 16.1085 5H14.3591C13.9138 5 13.7084 5.22179 13.5984 5.46993C13.5984 5.46993 12.7077 7.52579 11.4477 8.85843C11.041 9.2435 10.853 9.36693 10.631 9.36693C10.5217 9.36693 10.3517 9.2435 10.3517 8.89186V5.61007C10.3517 5.18836 10.227 5 9.85831 5H7.10754C6.8282 5 6.6622 5.19671 6.6622 5.37993C6.6622 5.77979 7.29222 5.87171 7.35755 6.99671V9.43764C7.35755 9.9725 7.25688 10.0709 7.03354 10.0709C6.43886 10.0709 4.99547 8.00664 4.14011 5.64414C3.96744 5.18579 3.79876 5.00064 3.35008 5.00064H1.60002C1.10067 5.00064 1 5.22243 1 5.47057C1 5.909 1.59469 8.08893 3.76543 10.9689C5.21215 12.9348 7.24955 14 9.10295 14C10.217 14 10.353 13.7634 10.353 13.3565C10.353 11.4781 10.2523 11.3006 10.8103 11.3006C11.069 11.3006 11.5144 11.4241 12.5544 12.3723C13.7431 13.4966 13.9384 14 14.6038 14H16.3532C16.8519 14 17.1046 13.7634 16.9592 13.2967C16.6265 12.3151 14.3785 10.2959 14.2771 10.1609Z" fill="#387BB6"/>
</svg>
