<svg width="13" height="17" viewBox="0 0 13 17" fill="none" xmlns="http://www.w3.org/2000/svg">
<path d="M11.6987 0H10.2352V4.95326C10.2352 5.30126 9.88332 5.47333 9.61071 5.03639L8.64404 3.48971L7.67736 5.03639C7.40282 5.4714 7.05288 5.30126 7.05288 4.95326V0H2.14603C0.959863 0.00319004 0 0.965663 0 2.15183V14.854C0.00319004 16.0379 0.962135 16.9968 2.14603 17H11.7007C11.962 16.9996 12.2124 16.8953 12.3967 16.71C12.5819 16.5257 12.6862 16.2753 12.6867 16.014V0.987945C12.6856 0.442739 12.2439 0.00106335 11.6987 0ZM11.8824 14.448L2.55976 14.4596C2.35657 14.4736 2.19489 14.6353 2.18087 14.8385C2.16536 15.0632 2.33501 15.258 2.55976 15.2735H11.8824L11.8805 16.0237C11.8806 16.0684 11.8632 16.1114 11.8321 16.1435C11.8 16.1746 11.757 16.192 11.7123 16.1919H2.14603C1.41193 16.1919 0.816843 15.5968 0.816843 14.8627C0.816843 14.1286 1.41193 13.5335 2.14603 13.5335H11.7123C11.8058 13.5346 11.8813 13.6101 11.8824 13.7036V14.448Z" fill="#387BB6"/>
</svg>
