<svg width="18" height="18" viewBox="0 0 18 18" fill="none" xmlns="http://www.w3.org/2000/svg">
<path d="M15 16.5H3V15C3 14.0054 3.39509 13.0516 4.09835 12.3483C4.80161 11.6451 5.75544 11.25 6.75 11.25H11.25C12.2446 11.25 13.1984 11.6451 13.9017 12.3483C14.6049 13.0516 15 14.0054 15 15V16.5ZM9 9.75C8.40905 9.75 7.82389 9.6336 7.27792 9.40746C6.73196 9.18131 6.23588 8.84984 5.81802 8.43198C5.40016 8.01412 5.06869 7.51804 4.84254 6.97208C4.6164 6.42611 4.5 5.84095 4.5 5.25C4.5 4.65905 4.6164 4.07389 4.84254 3.52792C5.06869 2.98196 5.40016 2.48588 5.81802 2.06802C6.23588 1.65016 6.73196 1.31869 7.27792 1.09254C7.82389 0.866396 8.40905 0.75 9 0.75C10.1935 0.75 11.3381 1.22411 12.182 2.06802C13.0259 2.91193 13.5 4.05653 13.5 5.25C13.5 6.44347 13.0259 7.58807 12.182 8.43198C11.3381 9.27589 10.1935 9.75 9 9.75Z" fill="#EEF2FA"/>
</svg>
