<svg width="15" height="17" viewBox="0 0 15 17" fill="none" xmlns="http://www.w3.org/2000/svg">
<path d="M7.50002 8C9.87941 7.99988 10.7355 5.77459 10.9597 3.94667C11.2357 1.69479 10.0958 0 7.50002 0C4.90469 0 3.76408 1.69466 4.04037 3.94665C4.26475 5.77454 5.12057 8.00017 7.50002 8Z" fill="#387BB6"/>
<path d="M14.9989 15.1367C14.9686 14.3683 14.8649 13.5964 14.7105 12.84C14.5234 11.9237 14.2853 10.5803 13.3642 9.98313C12.8314 9.63786 12.1416 9.52458 11.5317 9.31638C11.2349 9.21509 10.969 9.1145 10.7194 9C9.8771 9.8022 8.77876 10.2219 7.49969 10.2219C6.221 10.2219 5.12278 9.80225 4.28055 9C4.03099 9.11452 3.76508 9.21514 3.46826 9.31638C2.85839 9.52458 2.16853 9.63783 1.63586 9.98313C0.714628 10.5803 0.476576 11.9237 0.28955 12.84C0.135123 13.5964 0.0314171 14.3683 0.00114398 15.1367C-0.0223031 15.7318 0.316058 15.8152 0.889349 15.9949C1.60724 16.2198 2.3484 16.3867 3.09451 16.5235C4.53553 16.7878 6.0209 16.9909 7.49991 17C8.97891 16.9909 10.4643 16.7878 11.9053 16.5235C12.6514 16.3867 13.3926 16.2198 14.1105 15.9949C14.684 15.8153 15.0223 15.7319 14.9989 15.1367Z" fill="#387BB6"/>
</svg>
