<svg width="18" height="17" viewBox="0 0 18 17" fill="none" xmlns="http://www.w3.org/2000/svg">
<path d="M5.00001 11C6.35966 10.9999 6.84886 9.60912 6.97695 8.46667C7.13471 7.05924 6.4833 6 5.00001 6C3.51696 6 2.86519 7.05916 3.02307 8.46666C3.15128 9.60909 3.64033 11.0001 5.00001 11Z" fill="#387BB6"/>
<path d="M13 5C14.3597 4.99992 14.8489 3.60912 14.977 2.46667C15.1347 1.05924 14.4833 0 13 0C11.517 0 10.8652 1.05916 11.0231 2.46666C11.1513 3.60909 11.6403 5.00011 13 5Z" fill="#387BB6"/>
<path d="M9.99924 15.8354C9.97904 15.3552 9.90992 14.8728 9.80699 14.4C9.68228 13.8273 9.52356 12.9877 8.90945 12.6145C8.55429 12.3987 8.09439 12.3279 7.68781 12.1977C7.48992 12.1344 7.31265 12.0716 7.14628 12C6.58473 12.5014 5.8525 12.7637 4.9998 12.7637C4.14733 12.7637 3.41519 12.5014 2.8537 12C2.68733 12.0716 2.51005 12.1345 2.31217 12.1977C1.90559 12.3279 1.44569 12.3986 1.09057 12.6145C0.476419 12.9877 0.317717 13.8273 0.193033 14.4C0.0900822 14.8728 0.0209447 15.3552 0.000762653 15.8354C-0.0148688 16.2074 0.210705 16.2595 0.592899 16.3718C1.07149 16.5123 1.5656 16.6167 2.06301 16.7022C3.02369 16.8674 4.01393 16.9943 4.99994 17C5.98594 16.9943 6.97619 16.8674 7.93687 16.7022C8.43428 16.6167 8.92842 16.5124 9.40698 16.3718C9.78931 16.2596 10.0149 16.2074 9.99924 15.8354Z" fill="#387BB6"/>
<path d="M17.9992 9.83542C17.979 9.35518 17.9099 8.87276 17.807 8.39999C17.6823 7.82729 17.5236 6.98768 16.9094 6.61446C16.5543 6.39866 16.0944 6.32786 15.6878 6.19774C15.4899 6.13443 15.3127 6.07156 15.1463 6C14.5847 6.50138 13.8525 6.76366 12.9998 6.76369C12.1473 6.76369 11.4152 6.50141 10.8537 6C10.6873 6.07158 10.5101 6.13447 10.3122 6.19774C9.90559 6.32786 9.44569 6.39864 9.09057 6.61446C8.47642 6.98768 8.31772 7.82729 8.19303 8.39999C8.09008 8.87276 8.02094 9.35518 8.00076 9.83542C7.98513 10.2074 8.21071 10.2595 8.5929 10.3718C9.07149 10.5123 9.5656 10.6167 10.063 10.7022C11.0237 10.8674 12.0139 10.9943 12.9999 11C13.9859 10.9943 14.9762 10.8674 15.9369 10.7022C16.4343 10.6167 16.9284 10.5124 17.407 10.3718C17.7893 10.2596 18.0149 10.2074 17.9992 9.83542Z" fill="#387BB6"/>
</svg>
