<svg width="102" height="49" viewBox="0 0 102 49" fill="none" xmlns="http://www.w3.org/2000/svg">
<path fill-rule="evenodd" clip-rule="evenodd" d="M50.9712 49H0V0H100.854L50.9712 49ZM49.8913 9.80013H59.8518C69.3378 9.80013 73.7948 12.9535 73.797 20.1936C73.797 26.6942 69.2126 30.5707 61.4572 30.5707H58.2487L58.2121 39.2143L43.1338 39.2001L42.0828 35.4544C40.5273 35.9552 38.7733 36.234 36.9085 36.234C34.9949 36.234 33.1922 35.94 31.6067 35.4086L30.0989 39.2001L21.695 39.2263L22.0719 37.3185C22.0504 37.3371 22.0291 37.3556 22.0078 37.3741C21.9104 37.4587 21.8138 37.5425 21.7083 37.6256C19.4621 39.4005 16.6349 40.2204 13.1514 40.2825L12.2511 40.289C8.24872 40.289 4.72639 39.3591 1.40807 37.5058L4.47583 31.5278C7.79748 33.4562 9.88183 33.8907 12.6946 33.8319C14.1525 33.8036 15.2058 33.5423 15.8932 32.8454C16.3078 32.4185 16.5251 31.8893 16.5473 31.3231C16.575 29.7703 14.3244 29.0408 11.5693 28.2023C9.33524 27.5229 6.79965 26.5973 4.8173 25.1709C2.4713 23.4755 1.35485 21.3543 1.41028 18.3621C1.44354 16.1875 2.26398 14.221 3.78511 12.6748C5.96702 10.4589 9.48713 9.11413 13.7146 9.11413H13.7368C17.3622 9.11739 21.7837 10.1268 24.9812 11.7253L21.5331 17.6271C18.0263 15.9632 16.2635 15.8053 14.2678 15.6997C11.2932 15.544 9.79646 16.5883 9.77428 17.7142C9.74546 19.0862 12.5848 20.3275 15.2601 21.1714C19.3113 22.4356 24.4601 24.1234 25.2472 29.0147L32.6511 9.79251H41.2513L49.9246 32.8083L49.8913 9.80013ZM33.7288 28.921C34.6634 29.2695 35.7499 29.4676 36.9085 29.4676H36.9074C38.0349 29.4676 39.096 29.2749 40.0273 28.9482L36.934 19.17H36.873L33.7288 28.921ZM58.2465 23.8653H60.435H60.4361C63.352 23.8653 65.678 22.9125 65.6803 19.8854C65.6803 16.9607 63.352 16.0068 60.4361 16.0068H58.2465V23.8653Z" fill="#387BB6"/>
</svg>
