<svg width="184" height="125" viewBox="0 0 184 125" fill="none" xmlns="http://www.w3.org/2000/svg">
<mask id="mask0_625_53020" style="mask-type:alpha" maskUnits="userSpaceOnUse" x="0" y="0" width="184" height="125">
<rect y="6.10352e-05" width="184" height="125" fill="#C4C4C4"/>
</mask>
<g mask="url(#mask0_625_53020)">
<path d="M28.5074 79.0653L62.7193 27.0665C63.2942 26.1921 64.0958 25.4905 65.0386 25.0365C65.9813 24.5825 67.0297 24.3933 68.0717 24.489L130.012 30.1923C130.509 30.2377 130.986 30.411 131.395 30.6954C131.805 30.9798 132.134 31.3656 132.351 31.8151L164.202 97.9576C164.866 99.3371 164.955 100.924 164.449 102.369C163.943 103.814 162.884 105 161.505 105.664L67.8775 150.75C66.498 151.414 64.9111 151.503 63.4658 150.997C62.0206 150.492 60.8355 149.433 60.1712 148.053L28.318 81.9054C28.1014 81.456 28.0051 80.9582 28.0383 80.4604C28.0715 79.9627 28.2331 79.482 28.5074 79.0653ZM115.749 45.961L96.681 89.9946L49.68 77.738L46.7665 88.9062L103.341 103.665L126.342 50.5547L115.749 45.961Z" fill="white"/>
</g>
</svg>
